<?xml version="1.0" standalone="no"?>
<!DOCTYPE svg PUBLIC "-//W3C//DTD SVG 20010904//EN"
 "http://www.w3.org/TR/2001/REC-SVG-20010904/DTD/svg10.dtd">
<svg version="1.0" xmlns="http://www.w3.org/2000/svg"
 width="576.000000pt" height="594.000000pt" viewBox="0 0 576.000000 594.000000"
 preserveAspectRatio="xMidYMid meet">
<metadata>
Created by potrace 1.15, written by Peter Selinger 2001-2017
</metadata>
<g transform="translate(0.000000,594.000000) scale(0.100000,-0.100000)"
fill="#000000" stroke="none">
<path d="M1696 4833 c-611 -608 -1243 -1237 -1403 -1398 -289 -287 -293 -292
-293 -332 0 -33 6 -46 26 -62 25 -20 39 -21 240 -21 l214 0 2 -1491 3 -1491
24 -19 c23 -19 74 -19 2366 -19 2168 0 2345 1 2360 17 9 9 21 27 26 40 5 14 9
628 9 1494 l0 1469 219 0 c206 0 220 1 245 21 20 16 26 29 26 60 0 32 -7 47
-37 78 -52 53 -2715 2643 -2785 2709 -48 43 -63 52 -94 52 -36 0 -71 -34
-1148 -1107z m1376 -529 c505 -96 913 -478 1037 -972 46 -183 53 -422 16 -592
-101 -469 -432 -839 -884 -990 -255 -86 -579 -85 -835 2 -195 66 -358 169
-512 322 -156 157 -253 310 -318 506 -50 149 -67 260 -67 425 0 357 123 662
368 916 218 225 492 361 798 398 101 12 292 5 397 -15z m790 -2611 c227 -201
415 -486 574 -873 l43 -105 -805 -3 c-443 -1 -1165 -1 -1604 0 l-799 3 58 130
c149 339 352 633 551 802 l72 61 67 -40 c447 -276 1034 -299 1507 -59 55 27
133 72 174 100 41 28 77 50 80 51 3 0 40 -30 82 -67z"/>
</g>
</svg>
